<svg id="visual" viewBox="0 0 1024 56" width="1024" height="56" xmlns="http://www.w3.org/2000/svg" xmlns:xlink="http://www.w3.org/1999/xlink" version="1.1"><rect width="1024" height="56" fill="#2E3440"></rect><g><g transform="translate(391 14)"><path d="M7.3 4.3C4.4 9.1 -6.2 9.4 -8.7 4.8C-11.2 0.3 -5.6 -9.2 -0.3 -9.4C5 -9.5 10.1 -0.4 7.3 4.3Z" stroke="#81A1C1" fill="none" stroke-width="1"></path></g><g transform="translate(941 44)"><path d="M5.8 3.5C3.9 6.7 -3.7 6.6 -5.7 3.4C-7.6 0.2 -3.8 -6.2 0 -6.2C3.9 -6.2 7.7 0.3 5.8 3.5Z" stroke="#81A1C1" fill="none" stroke-width="1"></path></g><g transform="translate(299 34)"><path d="M5.4 3C3.5 6.3 -3.8 6.3 -5.6 3C-7.4 -0.3 -3.7 -6.9 0 -7C3.6 -7 7.2 -0.4 5.4 3Z" stroke="#81A1C1" fill="none" stroke-width="1"></path></g><g transform="translate(765 20)"><path d="M5.9 3.2C4.1 6.5 -3.3 6.4 -5.2 3C-7.2 -0.4 -3.6 -7 0.1 -6.9C3.9 -6.9 7.7 -0.1 5.9 3.2Z" stroke="#81A1C1" fill="none" stroke-width="1"></path></g><g transform="translate(666 16)"><path d="M5 2.9C3.2 6 -3.7 6.1 -5.4 3.1C-7.1 0 -3.6 -6.1 -0.1 -6.1C3.4 -6.2 6.8 -0.1 5 2.9Z" stroke="#81A1C1" fill="none" stroke-width="1"></path></g><g transform="translate(8 35)"><path d="M6.3 3.5C3.9 7.7 -5.1 7.9 -7.2 3.9C-9.4 -0.2 -4.7 -8.5 -0.2 -8.6C4.3 -8.7 8.6 -0.6 6.3 3.5Z" stroke="#81A1C1" fill="none" stroke-width="1"></path></g></g></svg>